<svg width="90" height="108" viewBox="0 0 90 108" fill="none" xmlns="http://www.w3.org/2000/svg">
<path d="M39.125 86.75C38.0895 86.75 37.25 87.7854 37.25 86.75V53C37.25 51.9645 38.0895 53 39.125 53C40.1605 53 41 51.9645 41 53V86.75C41 87.7854 40.1605 86.75 39.125 86.75Z" fill="#E1E1E3"/>
<path d="M56 84.875C54.9645 84.875 54.125 85.9105 54.125 84.875V53C54.125 51.9645 54.9645 53 56 53C57.0355 53 57.875 51.9645 57.875 53V84.875C57.875 85.9105 57.0355 84.875 56 84.875Z" fill="#E1E1E3"/>
<path d="M72.875 84.875C72.3777 84.875 71.9008 84.6775 71.5492 84.3258C71.1975 83.9742 71 83.4973 71 83V53C71 51.9645 71.8395 53 72.875 53C73.9105 53 74.75 51.9645 74.75 53V83C74.75 83.4973 74.5525 83.9742 74.2008 84.3258C73.8492 84.6775 73.3723 84.875 72.875 84.875Z" fill="#E1E1E3"/>
<path d="M31.6232 90.5C31.1933 90.4996 30.7765 90.3514 30.4428 90.0804C30.1091 89.8093 29.8787 89.4317 29.7902 89.011L22.2902 53.386C22.2327 53.113 22.2369 52.8306 22.3025 52.5594C22.3681 52.2882 22.4933 52.0351 22.6691 51.8185C22.8449 51.6018 23.0668 51.4272 23.3187 51.3072C23.5706 51.1872 23.8461 51.125 24.1251 51.125H87.8751C88.3724 51.125 88.8493 51.3225 89.2009 51.6742C89.5525 52.0258 89.7501 52.5027 89.7501 53V77.4312C89.7461 78.9068 89.2085 80.3312 88.2365 81.4414C87.2645 82.5516 85.9237 83.2728 84.4616 83.4718L31.8728 90.4836C31.7901 90.4946 31.7067 90.5001 31.6232 90.5ZM26.4358 54.875L33.1016 86.5365L83.9664 79.7546C84.5287 79.6779 85.0442 79.4005 85.418 78.9735C85.7918 78.5465 85.9985 77.9987 86.0001 77.4312V54.875H26.4358Z" fill="#E1E1E3"/>
<path d="M84.125 101.75H36.3828C35.1374 101.747 33.9311 101.314 32.968 100.525C32.0048 99.7353 31.3439 98.6373 31.097 97.4166L21.0896 47.3841C20.9823 46.8534 20.695 46.376 20.2762 46.0327C19.8575 45.6894 19.333 45.5012 18.7916 45.5H11C10.5027 45.5 10.0258 45.3025 9.67418 44.9508C9.32254 44.5992 9.125 44.1223 9.125 43.625C9.125 43.1277 9.32254 42.6508 9.67418 42.2992C10.0258 41.9475 10.5027 41.75 11 41.75H18.7916C20.1996 41.7529 21.5635 42.2419 22.6525 43.1345C23.7415 44.0271 24.4888 45.2684 24.7681 46.6484L34.7745 96.6809C34.8496 97.0524 35.0507 97.3866 35.3437 97.6269C35.6368 97.8672 36.0038 97.999 36.3828 98H84.125C84.6223 98 85.0992 98.1975 85.4508 98.5492C85.8025 98.9008 86 99.3777 86 99.875C86 100.372 85.8025 100.849 85.4508 101.201C85.0992 101.552 84.6223 101.75 84.125 101.75Z" fill="#E1E1E3"/>
<path d="M87.875 66.125H27.875C27.3777 66.125 26.9008 65.9275 26.5492 65.5758C26.1975 65.2242 26 64.7473 26 64.25C26 63.7527 26.1975 63.2758 26.5492 62.9242C26.9008 62.5725 27.3777 62.375 27.875 62.375H87.875C88.3723 62.375 88.8492 62.5725 89.2008 62.9242C89.5525 63.2758 89.75 63.7527 89.75 64.25C89.75 64.7473 89.5525 65.2242 89.2008 65.5758C88.8492 65.9275 88.3723 66.125 87.875 66.125Z" fill="#E1E1E3"/>
<path d="M87.875 77.375H29.75C29.2527 77.375 28.7758 77.1775 28.4242 76.8258C28.0725 76.4742 27.875 75.9973 27.875 75.5C27.875 75.0027 28.0725 74.5258 28.4242 74.1742C28.7758 73.8225 29.2527 73.625 29.75 73.625H87.875C88.3723 73.625 88.8492 73.8225 89.2008 74.1742C89.5525 74.5258 89.75 75.0027 89.75 75.5C89.75 75.9973 89.5525 76.4742 89.2008 76.8258C88.8492 77.1775 88.3723 77.375 87.875 77.375Z" fill="#E1E1E3"/>
<path d="M46.625 107.375C50.7671 107.375 54.125 104.017 54.125 99.875C54.125 95.7329 50.7671 92.375 46.625 92.375C42.4829 92.375 39.125 95.7329 39.125 99.875C39.125 104.017 42.4829 107.375 46.625 107.375Z" fill="#656565"/>
<path d="M46.625 102.922C48.3077 102.922 49.6719 101.558 49.6719 99.875C49.6719 98.1923 48.3077 96.8281 46.625 96.8281C44.9423 96.8281 43.5781 98.1923 43.5781 99.875C43.5781 101.558 44.9423 102.922 46.625 102.922Z" fill="white"/>
<path d="M80.375 107.375C84.5171 107.375 87.875 104.017 87.875 99.875C87.875 95.7329 84.5171 92.375 80.375 92.375C76.2329 92.375 72.875 95.7329 72.875 99.875C72.875 104.017 76.2329 107.375 80.375 107.375Z" fill="#656565"/>
<path d="M80.375 102.922C82.0577 102.922 83.4219 101.558 83.4219 99.875C83.4219 98.1923 82.0577 96.8281 80.375 96.8281C78.6923 96.8281 77.3281 98.1923 77.3281 99.875C77.3281 101.558 78.6923 102.922 80.375 102.922Z" fill="white"/>
<path d="M6.07812 49.25C9.18473 49.25 11.7031 46.7316 11.7031 43.625C11.7031 40.5184 9.18473 38 6.07812 38C2.97152 38 0.453125 40.5184 0.453125 43.625C0.453125 46.7316 2.97152 49.25 6.07812 49.25Z" fill="#656565"/>
<path d="M58.3374 24.1689C57.0975 24.1689 55.9083 23.817 55.0315 23.1907C54.1547 22.5645 53.6621 21.715 53.6621 20.8293V4.13175C53.6621 3.24606 54.1547 2.39664 55.0315 1.77036C55.9083 1.14408 57.0975 0.792236 58.3374 0.792236C59.5774 0.792236 60.7666 1.14408 61.6434 1.77036C62.5202 2.39664 63.0128 3.24606 63.0128 4.13175V20.8293C63.0128 21.715 62.5202 22.5645 61.6434 23.1907C60.7666 23.817 59.5774 24.1689 58.3374 24.1689Z" fill="#C9AE63"/>
<path d="M58.3374 39.7532C57.0975 39.7532 55.9083 39.4249 55.0315 38.8403C54.1547 38.2558 53.6621 37.463 53.6621 36.6364V33.5195C53.6621 32.6928 54.1547 31.9 55.0315 31.3155C55.9083 30.731 57.0975 30.4026 58.3374 30.4026C59.5774 30.4026 60.7666 30.731 61.6434 31.3155C62.5202 31.9 63.0128 32.6928 63.0128 33.5195V36.6364C63.0128 37.463 62.5202 38.2558 61.6434 38.8403C60.7666 39.4249 59.5774 39.7532 58.3374 39.7532Z" fill="#C9AE63"/>
</svg>
